<?xml version="1.0" encoding="utf-8"?>
<svg xmlns="http://www.w3.org/2000/svg" fill="none" height="100%" overflow="visible" preserveAspectRatio="none" style="display: block;" viewBox="0 0 202 56" width="100%">
<g id="Hedera logo">
<path d="M86.4021 26.3767H71.5231V15.6669H67.7558V40.8165H71.5231V29.8952H86.4021V40.8165H90.1694V15.6669H86.4021V26.3767Z" fill="black"/>
<path d="M103.215 25.8831C105.683 25.8831 107.417 27.1505 108.238 29.5544H98.1332C98.8453 27.2177 100.694 25.8831 103.234 25.8831M103.235 22.7827C98.1248 22.7827 94.2666 26.751 94.2666 32.0052C94.164 36.9992 98.1417 41.1321 103.15 41.2328C103.284 41.2361 103.419 41.2345 103.554 41.2328C109.635 41.2328 111.763 37.1637 112.033 35.7385L112.071 35.5186H108.578L108.526 35.6244C108.482 35.715 107.333 37.9275 103.555 37.9275C100.446 37.9275 98.1366 35.7385 97.8774 32.5827H112.218V32.3913C112.218 26.7342 108.513 22.7944 103.21 22.7944" fill="black"/>
<path d="M124.301 37.9275C120.976 37.9275 118.651 35.4901 118.651 32.0103C118.651 28.5304 120.976 26.0897 124.301 26.0897C127.625 26.0897 129.888 28.522 129.888 32.0103C129.888 35.4985 127.592 37.9275 124.301 37.9275ZM129.815 25.581C128.945 24.3808 126.957 22.7827 123.708 22.7827C118.569 22.7827 114.983 26.5781 114.983 32.0103C114.983 37.4424 118.569 41.2328 123.708 41.2328C126.102 41.305 128.381 40.2088 129.815 38.2968V40.8165H133.376V14.7604H129.815V25.581Z" fill="black"/>
<path d="M146.556 25.8831C149.02 25.8831 150.758 27.1505 151.576 29.5544H141.471C142.183 27.2177 144.031 25.8831 146.576 25.8831M146.576 22.7827C141.461 22.7827 137.602 26.751 137.602 32.0052C137.5 36.9992 141.477 41.1321 146.485 41.2328C146.62 41.2361 146.755 41.2345 146.889 41.2328C152.971 41.2328 155.099 37.1637 155.368 35.7385L155.407 35.5186H151.914L151.865 35.6244C151.816 35.715 150.662 37.9275 146.889 37.9275C143.78 37.9275 141.476 35.7385 141.216 32.5827H155.58V32.3913C155.58 26.7342 151.875 22.7944 146.578 22.7944" fill="black"/>
<path d="M163.154 25.7623V23.2007H159.588V40.8115H163.154V30.8923C163.154 27.812 164.766 26.6117 168.928 26.6117H173.528V23.0614H169C165.473 23.0614 163.871 24.6208 163.172 25.7623" fill="black"/>
<path d="M189.35 32.0068C189.35 35.438 187.074 37.9275 183.941 37.9275C180.808 37.9275 178.393 35.4951 178.393 32.0068C178.393 28.5186 180.689 26.0896 183.956 26.0896C187.224 26.0896 189.365 28.5807 189.365 32.0068M189.291 25.591C188.594 24.6308 186.818 22.7843 183.357 22.7843C179.075 22.7843 174.738 25.9519 174.738 32.0068C174.738 37.439 178.28 41.2344 183.357 41.2344C185.699 41.3268 187.931 40.2356 189.291 38.332V40.8315H192.851V23.2023H189.291V25.5927V25.591Z" fill="black"/>
<path d="M196.302 23.7244H197.28V25.9268H197.645V23.7244H198.622V23.387H196.302V23.7244Z" fill="black"/>
<path d="M201.438 23.387L200.594 25.393L199.753 23.387H199.18V25.9268H199.527V23.7244L200.46 25.9403H200.711L201.635 23.7429V25.9268H202V23.387H201.438Z" fill="black"/>
<path d="M35.9795 25.9873H20.1798V30.011H35.9795V25.9873Z" fill="black"/>
<path d="M28.078 0C12.5711 0 0 12.5362 0 28C0 43.4638 12.5711 56 28.078 56C43.5849 56 56.156 43.4638 56.156 28C56.156 12.5362 43.5849 0 28.078 0ZM39.6779 40.5748H35.9796V32.6952H20.1798L20.1764 32.6885V40.5748H16.4781V15.4252H20.1764V23.3098L20.1798 23.3065H35.9796V15.4269H39.6779V40.5765V40.5748Z" fill="black"/>
</g>
</svg>